{
    "asset" : {
        "generator" : "Khronos glTF Blender I/O v1.8.19",
        "version" : "2.0"
    },
    "scene" : 0,
    "scenes" : [
        {
            "name" : "Scene",
            "nodes" : [
                3
            ]
        }
    ],
    "nodes" : [
        {
            "name" : "Box02",
            "rotation" : [
                -0.7071068286895752,
                0,
                0,
                0.7071068286895752
            ],
            "translation" : [
                -4.990850925445557,
                -55.60273361206055,
                -2.0866000652313232
            ]
        },
        {
            "name" : "Box01",
            "rotation" : [
                -1.1897642870906111e-08,
                0.7071064710617065,
                1.1897622442802458e-08,
                0.7071070671081543
            ],
            "translation" : [
                -198.25384521484375,
                -82.83267211914062,
                0.15488199889659882
            ]
        },
        {
            "mesh" : 0,
            "name" : "Bridge01",
            "skin" : 0
        },
        {
            "children" : [
                2,
                0,
                1
            ],
            "name" : "root",
            "scale" : [
                0.009999999776482582,
                0.009999999776482582,
                0.009999999776482582
            ]
        }
    ],
    "materials" : [
        {
            "doubleSided" : true,
            "name" : "MI_JPG_bridge_01",
            "pbrMetallicRoughness" : {
                "baseColorTexture" : {
                    "index" : 0
                },
                "roughnessFactor" : 0.9292893409729004
            }
        },
        {
            "alphaMode" : "BLEND",
            "doubleSided" : true,
            "name" : "MI_TGA_bridge_shadow01",
            "pbrMetallicRoughness" : {
                "baseColorTexture" : {
                    "index" : 1
                },
                "roughnessFactor" : 0.9292893409729004
            }
        }
    ],
    "meshes" : [
        {
            "name" : "Bridge01",
            "primitives" : [
                {
                    "attributes" : {
                        "POSITION" : 0,
                        "NORMAL" : 1,
                        "TEXCOORD_0" : 2,
                        "JOINTS_0" : 3,
                        "WEIGHTS_0" : 4
                    },
                    "indices" : 5,
                    "material" : 0
                },
                {
                    "attributes" : {
                        "POSITION" : 6,
                        "NORMAL" : 7,
                        "TEXCOORD_0" : 8,
                        "JOINTS_0" : 9,
                        "WEIGHTS_0" : 10
                    },
                    "indices" : 11,
                    "material" : 1
                }
            ]
        }
    ],
    "textures" : [
        {
            "sampler" : 0,
            "source" : 0
        },
        {
            "sampler" : 0,
            "source" : 1
        }
    ],
    "images" : [
        {
            "mimeType" : "image/jpeg",
            "name" : "JPG_bridge_01",
            "uri" : "JPG_bridge_01.jpg"
        },
        {
            "mimeType" : "image/png",
            "name" : "TGA_bridge_shadow01-TGA_bridge_shadow01",
            "uri" : "TGA_bridge_shadow01-TGA_bridge_shadow01.png"
        }
    ],
    "skins" : [
        {
            "inverseBindMatrices" : 12,
            "joints" : [
                0,
                1
            ],
            "name" : "root"
        }
    ],
    "accessors" : [
        {
            "bufferView" : 0,
            "componentType" : 5126,
            "count" : 198,
            "max" : [
                0.839747965335846,
                0.9939070343971252,
                3.993980884552002
            ],
            "min" : [
                -0.4920700192451477,
                -1.5800319910049438,
                -4.002829074859619
            ],
            "type" : "VEC3"
        },
        {
            "bufferView" : 1,
            "componentType" : 5126,
            "count" : 198,
            "type" : "VEC3"
        },
        {
            "bufferView" : 2,
            "componentType" : 5126,
            "count" : 198,
            "type" : "VEC2"
        },
        {
            "bufferView" : 3,
            "componentType" : 5121,
            "count" : 198,
            "type" : "VEC4"
        },
        {
            "bufferView" : 4,
            "componentType" : 5126,
            "count" : 198,
            "type" : "VEC4"
        },
        {
            "bufferView" : 5,
            "componentType" : 5123,
            "count" : 582,
            "type" : "SCALAR"
        },
        {
            "bufferView" : 6,
            "componentType" : 5126,
            "count" : 4,
            "max" : [
                0.4165169894695282,
                -0.0775429978966713,
                3.9936647415161133
            ],
            "min" : [
                0.4165169894695282,
                -1.5791099071502686,
                -4.00262975692749
            ],
            "type" : "VEC3"
        },
        {
            "bufferView" : 7,
            "componentType" : 5126,
            "count" : 4,
            "type" : "VEC3"
        },
        {
            "bufferView" : 8,
            "componentType" : 5126,
            "count" : 4,
            "type" : "VEC2"
        },
        {
            "bufferView" : 9,
            "componentType" : 5121,
            "count" : 4,
            "type" : "VEC4"
        },
        {
            "bufferView" : 10,
            "componentType" : 5126,
            "count" : 4,
            "type" : "VEC4"
        },
        {
            "bufferView" : 11,
            "componentType" : 5123,
            "count" : 6,
            "type" : "SCALAR"
        },
        {
            "bufferView" : 12,
            "componentType" : 5126,
            "count" : 2,
            "type" : "MAT4"
        }
    ],
    "bufferViews" : [
        {
            "buffer" : 0,
            "byteLength" : 2376,
            "byteOffset" : 0
        },
        {
            "buffer" : 0,
            "byteLength" : 2376,
            "byteOffset" : 2376
        },
        {
            "buffer" : 0,
            "byteLength" : 1584,
            "byteOffset" : 4752
        },
        {
            "buffer" : 0,
            "byteLength" : 792,
            "byteOffset" : 6336
        },
        {
            "buffer" : 0,
            "byteLength" : 3168,
            "byteOffset" : 7128
        },
        {
            "buffer" : 0,
            "byteLength" : 1164,
            "byteOffset" : 10296
        },
        {
            "buffer" : 0,
            "byteLength" : 48,
            "byteOffset" : 11460
        },
        {
            "buffer" : 0,
            "byteLength" : 48,
            "byteOffset" : 11508
        },
        {
            "buffer" : 0,
            "byteLength" : 32,
            "byteOffset" : 11556
        },
        {
            "buffer" : 0,
            "byteLength" : 16,
            "byteOffset" : 11588
        },
        {
            "buffer" : 0,
            "byteLength" : 64,
            "byteOffset" : 11604
        },
        {
            "buffer" : 0,
            "byteLength" : 12,
            "byteOffset" : 11668
        },
        {
            "buffer" : 0,
            "byteLength" : 128,
            "byteOffset" : 11680
        }
    ],
    "samplers" : [
        {
            "magFilter" : 9729,
            "minFilter" : 9987
        }
    ],
    "buffers" : [
        {
            "byteLength" : 11808,
            "uri" : "Bridge01.bin"
        }
    ]
}
