{
    "asset" : {
        "generator" : "Khronos glTF Blender I/O v1.8.19",
        "version" : "2.0"
    },
    "scene" : 0,
    "scenes" : [
        {
            "name" : "Scene",
            "nodes" : [
                2
            ]
        }
    ],
    "nodes" : [
        {
            "name" : "Cylinder01",
            "rotation" : [
                -0.7071068286895752,
                0,
                0,
                0.7071068286895752
            ],
            "translation" : [
                249.4334716796875,
                137.04891967773438,
                -103.87948608398438
            ]
        },
        {
            "mesh" : 0,
            "name" : "StoneMuWall01",
            "skin" : 0
        },
        {
            "children" : [
                1,
                0
            ],
            "name" : "root",
            "scale" : [
                0.009999999776482582,
                0.009999999776482582,
                0.009999999776482582
            ]
        }
    ],
    "materials" : [
        {
            "doubleSided" : true,
            "name" : "MI_JPG_c_wall04",
            "pbrMetallicRoughness" : {
                "baseColorTexture" : {
                    "index" : 0
                },
                "roughnessFactor" : 0.9292893409729004
            }
        },
        {
            "doubleSided" : true,
            "name" : "MI_JPG_c_wall05",
            "pbrMetallicRoughness" : {
                "baseColorTexture" : {
                    "index" : 1
                },
                "roughnessFactor" : 0.9292893409729004
            }
        },
        {
            "doubleSided" : true,
            "name" : "MI_JPG_c_wall06",
            "pbrMetallicRoughness" : {
                "baseColorTexture" : {
                    "index" : 2
                },
                "roughnessFactor" : 0.9292893409729004
            }
        },
        {
            "doubleSided" : true,
            "name" : "MI_JPG_tile_02",
            "pbrMetallicRoughness" : {
                "baseColorTexture" : {
                    "index" : 3
                },
                "roughnessFactor" : 0.9292893409729004
            }
        },
        {
            "doubleSided" : true,
            "name" : "MI_JPG_bridge_01",
            "pbrMetallicRoughness" : {
                "baseColorTexture" : {
                    "index" : 4
                },
                "roughnessFactor" : 0.9292893409729004
            }
        }
    ],
    "meshes" : [
        {
            "name" : "StoneMuWall01",
            "primitives" : [
                {
                    "attributes" : {
                        "POSITION" : 0,
                        "NORMAL" : 1,
                        "TEXCOORD_0" : 2,
                        "JOINTS_0" : 3,
                        "WEIGHTS_0" : 4
                    },
                    "indices" : 5,
                    "material" : 0
                },
                {
                    "attributes" : {
                        "POSITION" : 6,
                        "NORMAL" : 7,
                        "TEXCOORD_0" : 8,
                        "JOINTS_0" : 9,
                        "WEIGHTS_0" : 10
                    },
                    "indices" : 11,
                    "material" : 1
                },
                {
                    "attributes" : {
                        "POSITION" : 12,
                        "NORMAL" : 13,
                        "TEXCOORD_0" : 14,
                        "JOINTS_0" : 15,
                        "WEIGHTS_0" : 16
                    },
                    "indices" : 17,
                    "material" : 2
                },
                {
                    "attributes" : {
                        "POSITION" : 18,
                        "NORMAL" : 19,
                        "TEXCOORD_0" : 20,
                        "JOINTS_0" : 21,
                        "WEIGHTS_0" : 22
                    },
                    "indices" : 23,
                    "material" : 3
                },
                {
                    "attributes" : {
                        "POSITION" : 24,
                        "NORMAL" : 25,
                        "TEXCOORD_0" : 26,
                        "JOINTS_0" : 27,
                        "WEIGHTS_0" : 28
                    },
                    "indices" : 29,
                    "material" : 4
                }
            ]
        }
    ],
    "textures" : [
        {
            "sampler" : 0,
            "source" : 0
        },
        {
            "sampler" : 0,
            "source" : 1
        },
        {
            "sampler" : 0,
            "source" : 2
        },
        {
            "sampler" : 0,
            "source" : 3
        },
        {
            "sampler" : 0,
            "source" : 4
        }
    ],
    "images" : [
        {
            "mimeType" : "image/jpeg",
            "name" : "JPG_c_wall04",
            "uri" : "JPG_c_wall04.jpg"
        },
        {
            "mimeType" : "image/jpeg",
            "name" : "JPG_c_wall05",
            "uri" : "JPG_c_wall05.jpg"
        },
        {
            "mimeType" : "image/jpeg",
            "name" : "JPG_c_wall06",
            "uri" : "JPG_c_wall06.jpg"
        },
        {
            "mimeType" : "image/jpeg",
            "name" : "JPG_tile_02",
            "uri" : "JPG_tile_02.jpg"
        },
        {
            "mimeType" : "image/jpeg",
            "name" : "JPG_bridge_01",
            "uri" : "JPG_bridge_01.jpg"
        }
    ],
    "skins" : [
        {
            "inverseBindMatrices" : 30,
            "joints" : [
                0
            ],
            "name" : "root"
        }
    ],
    "accessors" : [
        {
            "bufferView" : 0,
            "componentType" : 5126,
            "count" : 112,
            "max" : [
                2.9992001056671143,
                2.8008317947387695,
                1.0002179145812988
            ],
            "min" : [
                -3.0006370544433594,
                0,
                -1.006742000579834
            ],
            "type" : "VEC3"
        },
        {
            "bufferView" : 1,
            "componentType" : 5126,
            "count" : 112,
            "type" : "VEC3"
        },
        {
            "bufferView" : 2,
            "componentType" : 5126,
            "count" : 112,
            "type" : "VEC2"
        },
        {
            "bufferView" : 3,
            "componentType" : 5121,
            "count" : 112,
            "type" : "VEC4"
        },
        {
            "bufferView" : 4,
            "componentType" : 5126,
            "count" : 112,
            "type" : "VEC4"
        },
        {
            "bufferView" : 5,
            "componentType" : 5123,
            "count" : 168,
            "type" : "SCALAR"
        },
        {
            "bufferView" : 6,
            "componentType" : 5126,
            "count" : 52,
            "max" : [
                2.8563430309295654,
                4.310445785522461,
                1.3495910167694092
            ],
            "min" : [
                -2.8577799797058105,
                1.0054919719696045,
                -0.4356839954853058
            ],
            "type" : "VEC3"
        },
        {
            "bufferView" : 7,
            "componentType" : 5126,
            "count" : 52,
            "type" : "VEC3"
        },
        {
            "bufferView" : 8,
            "componentType" : 5126,
            "count" : 52,
            "type" : "VEC2"
        },
        {
            "bufferView" : 9,
            "componentType" : 5121,
            "count" : 52,
            "type" : "VEC4"
        },
        {
            "bufferView" : 10,
            "componentType" : 5126,
            "count" : 52,
            "type" : "VEC4"
        },
        {
            "bufferView" : 11,
            "componentType" : 5123,
            "count" : 96,
            "type" : "SCALAR"
        },
        {
            "bufferView" : 12,
            "componentType" : 5126,
            "count" : 32,
            "max" : [
                2.572305917739868,
                4.310445785522461,
                0.25511398911476135
            ],
            "min" : [
                -2.5967180728912354,
                2.7986247539520264,
                -0.4356839954853058
            ],
            "type" : "VEC3"
        },
        {
            "bufferView" : 13,
            "componentType" : 5126,
            "count" : 32,
            "type" : "VEC3"
        },
        {
            "bufferView" : 14,
            "componentType" : 5126,
            "count" : 32,
            "type" : "VEC2"
        },
        {
            "bufferView" : 15,
            "componentType" : 5121,
            "count" : 32,
            "type" : "VEC4"
        },
        {
            "bufferView" : 16,
            "componentType" : 5126,
            "count" : 32,
            "type" : "VEC4"
        },
        {
            "bufferView" : 17,
            "componentType" : 5123,
            "count" : 60,
            "type" : "SCALAR"
        },
        {
            "bufferView" : 18,
            "componentType" : 5126,
            "count" : 105,
            "max" : [
                2.530646800994873,
                6.235742092132568,
                0.13100098073482513
            ],
            "min" : [
                -2.5204460620880127,
                2.0045230388641357,
                -0.17534102499485016
            ],
            "type" : "VEC3"
        },
        {
            "bufferView" : 19,
            "componentType" : 5126,
            "count" : 105,
            "type" : "VEC3"
        },
        {
            "bufferView" : 20,
            "componentType" : 5126,
            "count" : 105,
            "type" : "VEC2"
        },
        {
            "bufferView" : 21,
            "componentType" : 5121,
            "count" : 105,
            "type" : "VEC4"
        },
        {
            "bufferView" : 22,
            "componentType" : 5126,
            "count" : 105,
            "type" : "VEC4"
        },
        {
            "bufferView" : 23,
            "componentType" : 5123,
            "count" : 246,
            "type" : "SCALAR"
        },
        {
            "bufferView" : 24,
            "componentType" : 5126,
            "count" : 88,
            "max" : [
                1.545346975326538,
                3.337383985519409,
                0.47423309087753296
            ],
            "min" : [
                -1.8161498308181763,
                2.831955909729004,
                0.13288497924804688
            ],
            "type" : "VEC3"
        },
        {
            "bufferView" : 25,
            "componentType" : 5126,
            "count" : 88,
            "type" : "VEC3"
        },
        {
            "bufferView" : 26,
            "componentType" : 5126,
            "count" : 88,
            "type" : "VEC2"
        },
        {
            "bufferView" : 27,
            "componentType" : 5121,
            "count" : 88,
            "type" : "VEC4"
        },
        {
            "bufferView" : 28,
            "componentType" : 5126,
            "count" : 88,
            "type" : "VEC4"
        },
        {
            "bufferView" : 29,
            "componentType" : 5123,
            "count" : 384,
            "type" : "SCALAR"
        },
        {
            "bufferView" : 30,
            "componentType" : 5126,
            "count" : 1,
            "type" : "MAT4"
        }
    ],
    "bufferViews" : [
        {
            "buffer" : 0,
            "byteLength" : 1344,
            "byteOffset" : 0
        },
        {
            "buffer" : 0,
            "byteLength" : 1344,
            "byteOffset" : 1344
        },
        {
            "buffer" : 0,
            "byteLength" : 896,
            "byteOffset" : 2688
        },
        {
            "buffer" : 0,
            "byteLength" : 448,
            "byteOffset" : 3584
        },
        {
            "buffer" : 0,
            "byteLength" : 1792,
            "byteOffset" : 4032
        },
        {
            "buffer" : 0,
            "byteLength" : 336,
            "byteOffset" : 5824
        },
        {
            "buffer" : 0,
            "byteLength" : 624,
            "byteOffset" : 6160
        },
        {
            "buffer" : 0,
            "byteLength" : 624,
            "byteOffset" : 6784
        },
        {
            "buffer" : 0,
            "byteLength" : 416,
            "byteOffset" : 7408
        },
        {
            "buffer" : 0,
            "byteLength" : 208,
            "byteOffset" : 7824
        },
        {
            "buffer" : 0,
            "byteLength" : 832,
            "byteOffset" : 8032
        },
        {
            "buffer" : 0,
            "byteLength" : 192,
            "byteOffset" : 8864
        },
        {
            "buffer" : 0,
            "byteLength" : 384,
            "byteOffset" : 9056
        },
        {
            "buffer" : 0,
            "byteLength" : 384,
            "byteOffset" : 9440
        },
        {
            "buffer" : 0,
            "byteLength" : 256,
            "byteOffset" : 9824
        },
        {
            "buffer" : 0,
            "byteLength" : 128,
            "byteOffset" : 10080
        },
        {
            "buffer" : 0,
            "byteLength" : 512,
            "byteOffset" : 10208
        },
        {
            "buffer" : 0,
            "byteLength" : 120,
            "byteOffset" : 10720
        },
        {
            "buffer" : 0,
            "byteLength" : 1260,
            "byteOffset" : 10840
        },
        {
            "buffer" : 0,
            "byteLength" : 1260,
            "byteOffset" : 12100
        },
        {
            "buffer" : 0,
            "byteLength" : 840,
            "byteOffset" : 13360
        },
        {
            "buffer" : 0,
            "byteLength" : 420,
            "byteOffset" : 14200
        },
        {
            "buffer" : 0,
            "byteLength" : 1680,
            "byteOffset" : 14620
        },
        {
            "buffer" : 0,
            "byteLength" : 492,
            "byteOffset" : 16300
        },
        {
            "buffer" : 0,
            "byteLength" : 1056,
            "byteOffset" : 16792
        },
        {
            "buffer" : 0,
            "byteLength" : 1056,
            "byteOffset" : 17848
        },
        {
            "buffer" : 0,
            "byteLength" : 704,
            "byteOffset" : 18904
        },
        {
            "buffer" : 0,
            "byteLength" : 352,
            "byteOffset" : 19608
        },
        {
            "buffer" : 0,
            "byteLength" : 1408,
            "byteOffset" : 19960
        },
        {
            "buffer" : 0,
            "byteLength" : 768,
            "byteOffset" : 21368
        },
        {
            "buffer" : 0,
            "byteLength" : 64,
            "byteOffset" : 22136
        }
    ],
    "samplers" : [
        {
            "magFilter" : 9729,
            "minFilter" : 9987
        }
    ],
    "buffers" : [
        {
            "byteLength" : 22200,
            "uri" : "StoneMuWall01.bin"
        }
    ]
}
