{
    "asset" : {
        "generator" : "Khronos glTF Blender I/O v1.8.19",
        "version" : "2.0"
    },
    "scene" : 0,
    "scenes" : [
        {
            "name" : "Scene",
            "nodes" : [
                2
            ]
        }
    ],
    "nodes" : [
        {
            "name" : "Box01",
            "rotation" : [
                -0.7071068286895752,
                0,
                0,
                0.7071068286895752
            ],
            "translation" : [
                -0.014720999635756016,
                0,
                0.07544299960136414
            ]
        },
        {
            "mesh" : 0,
            "name" : "StoneMuWall02",
            "skin" : 0
        },
        {
            "children" : [
                1,
                0
            ],
            "name" : "root",
            "scale" : [
                0.009999999776482582,
                0.009999999776482582,
                0.009999999776482582
            ]
        }
    ],
    "materials" : [
        {
            "doubleSided" : true,
            "name" : "MI_JPG_c_wall06",
            "pbrMetallicRoughness" : {
                "baseColorTexture" : {
                    "index" : 0
                },
                "roughnessFactor" : 0.9292893409729004
            }
        },
        {
            "doubleSided" : true,
            "name" : "MI_JPG_c_wall05",
            "pbrMetallicRoughness" : {
                "baseColorTexture" : {
                    "index" : 1
                },
                "roughnessFactor" : 0.9292893409729004
            }
        },
        {
            "doubleSided" : true,
            "name" : "MI_JPG_c_wall04",
            "pbrMetallicRoughness" : {
                "baseColorTexture" : {
                    "index" : 2
                },
                "roughnessFactor" : 0.9292893409729004
            }
        }
    ],
    "meshes" : [
        {
            "name" : "StoneMuWall02",
            "primitives" : [
                {
                    "attributes" : {
                        "POSITION" : 0,
                        "NORMAL" : 1,
                        "TEXCOORD_0" : 2,
                        "JOINTS_0" : 3,
                        "WEIGHTS_0" : 4
                    },
                    "indices" : 5,
                    "material" : 0
                },
                {
                    "attributes" : {
                        "POSITION" : 6,
                        "NORMAL" : 7,
                        "TEXCOORD_0" : 8,
                        "JOINTS_0" : 9,
                        "WEIGHTS_0" : 10
                    },
                    "indices" : 11,
                    "material" : 1
                },
                {
                    "attributes" : {
                        "POSITION" : 12,
                        "NORMAL" : 13,
                        "TEXCOORD_0" : 14,
                        "JOINTS_0" : 15,
                        "WEIGHTS_0" : 16
                    },
                    "indices" : 17,
                    "material" : 2
                }
            ]
        }
    ],
    "textures" : [
        {
            "sampler" : 0,
            "source" : 0
        },
        {
            "sampler" : 0,
            "source" : 1
        },
        {
            "sampler" : 0,
            "source" : 2
        }
    ],
    "images" : [
        {
            "mimeType" : "image/jpeg",
            "name" : "JPG_c_wall06",
            "uri" : "JPG_c_wall06.jpg"
        },
        {
            "mimeType" : "image/jpeg",
            "name" : "JPG_c_wall05",
            "uri" : "JPG_c_wall05.jpg"
        },
        {
            "mimeType" : "image/jpeg",
            "name" : "JPG_c_wall04",
            "uri" : "JPG_c_wall04.jpg"
        }
    ],
    "skins" : [
        {
            "inverseBindMatrices" : 18,
            "joints" : [
                0
            ],
            "name" : "root"
        }
    ],
    "accessors" : [
        {
            "bufferView" : 0,
            "componentType" : 5126,
            "count" : 16,
            "max" : [
                0.4998529851436615,
                2.8129079341888428,
                1.473950982093811
            ],
            "min" : [
                -0.5001469850540161,
                -1.7417348623275757,
                -0.4992459714412689
            ],
            "type" : "VEC3"
        },
        {
            "bufferView" : 1,
            "componentType" : 5126,
            "count" : 16,
            "type" : "VEC3"
        },
        {
            "bufferView" : 2,
            "componentType" : 5126,
            "count" : 16,
            "type" : "VEC2"
        },
        {
            "bufferView" : 3,
            "componentType" : 5121,
            "count" : 16,
            "type" : "VEC4"
        },
        {
            "bufferView" : 4,
            "componentType" : 5126,
            "count" : 16,
            "type" : "VEC4"
        },
        {
            "bufferView" : 5,
            "componentType" : 5123,
            "count" : 30,
            "type" : "SCALAR"
        },
        {
            "bufferView" : 6,
            "componentType" : 5126,
            "count" : 18,
            "max" : [
                0.4998529851436615,
                3.3409297466278076,
                1.473950982093811
            ],
            "min" : [
                -0.5001469850540161,
                -1.7417348623275757,
                0.31325700879096985
            ],
            "type" : "VEC3"
        },
        {
            "bufferView" : 7,
            "componentType" : 5126,
            "count" : 18,
            "type" : "VEC3"
        },
        {
            "bufferView" : 8,
            "componentType" : 5126,
            "count" : 18,
            "type" : "VEC2"
        },
        {
            "bufferView" : 9,
            "componentType" : 5121,
            "count" : 18,
            "type" : "VEC4"
        },
        {
            "bufferView" : 10,
            "componentType" : 5126,
            "count" : 18,
            "type" : "VEC4"
        },
        {
            "bufferView" : 11,
            "componentType" : 5123,
            "count" : 66,
            "type" : "SCALAR"
        },
        {
            "bufferView" : 12,
            "componentType" : 5126,
            "count" : 16,
            "max" : [
                0.4998529851436615,
                2.8129079341888428,
                1.3341939449310303
            ],
            "min" : [
                -0.5001469850540161,
                0,
                -0.4992459714412689
            ],
            "type" : "VEC3"
        },
        {
            "bufferView" : 13,
            "componentType" : 5126,
            "count" : 16,
            "type" : "VEC3"
        },
        {
            "bufferView" : 14,
            "componentType" : 5126,
            "count" : 16,
            "type" : "VEC2"
        },
        {
            "bufferView" : 15,
            "componentType" : 5121,
            "count" : 16,
            "type" : "VEC4"
        },
        {
            "bufferView" : 16,
            "componentType" : 5126,
            "count" : 16,
            "type" : "VEC4"
        },
        {
            "bufferView" : 17,
            "componentType" : 5123,
            "count" : 36,
            "type" : "SCALAR"
        },
        {
            "bufferView" : 18,
            "componentType" : 5126,
            "count" : 1,
            "type" : "MAT4"
        }
    ],
    "bufferViews" : [
        {
            "buffer" : 0,
            "byteLength" : 192,
            "byteOffset" : 0
        },
        {
            "buffer" : 0,
            "byteLength" : 192,
            "byteOffset" : 192
        },
        {
            "buffer" : 0,
            "byteLength" : 128,
            "byteOffset" : 384
        },
        {
            "buffer" : 0,
            "byteLength" : 64,
            "byteOffset" : 512
        },
        {
            "buffer" : 0,
            "byteLength" : 256,
            "byteOffset" : 576
        },
        {
            "buffer" : 0,
            "byteLength" : 60,
            "byteOffset" : 832
        },
        {
            "buffer" : 0,
            "byteLength" : 216,
            "byteOffset" : 892
        },
        {
            "buffer" : 0,
            "byteLength" : 216,
            "byteOffset" : 1108
        },
        {
            "buffer" : 0,
            "byteLength" : 144,
            "byteOffset" : 1324
        },
        {
            "buffer" : 0,
            "byteLength" : 72,
            "byteOffset" : 1468
        },
        {
            "buffer" : 0,
            "byteLength" : 288,
            "byteOffset" : 1540
        },
        {
            "buffer" : 0,
            "byteLength" : 132,
            "byteOffset" : 1828
        },
        {
            "buffer" : 0,
            "byteLength" : 192,
            "byteOffset" : 1960
        },
        {
            "buffer" : 0,
            "byteLength" : 192,
            "byteOffset" : 2152
        },
        {
            "buffer" : 0,
            "byteLength" : 128,
            "byteOffset" : 2344
        },
        {
            "buffer" : 0,
            "byteLength" : 64,
            "byteOffset" : 2472
        },
        {
            "buffer" : 0,
            "byteLength" : 256,
            "byteOffset" : 2536
        },
        {
            "buffer" : 0,
            "byteLength" : 72,
            "byteOffset" : 2792
        },
        {
            "buffer" : 0,
            "byteLength" : 64,
            "byteOffset" : 2864
        }
    ],
    "samplers" : [
        {
            "magFilter" : 9729,
            "minFilter" : 9987
        }
    ],
    "buffers" : [
        {
            "byteLength" : 2928,
            "uri" : "StoneMuWall02.bin"
        }
    ]
}
